<?xml version="1.0" standalone="no"?>
<!DOCTYPE svg PUBLIC "-//W3C//DTD SVG 20010904//EN"
 "http://www.w3.org/TR/2001/REC-SVG-20010904/DTD/svg10.dtd">
<svg version="1.0" xmlns="http://www.w3.org/2000/svg"
 width="458.000000pt" height="458.000000pt" viewBox="0 0 458.000000 458.000000"
 preserveAspectRatio="xMidYMid meet">
<metadata>
Created by potrace 1.11, written by Peter Selinger 2001-2013
</metadata>
<g transform="translate(0.000000,458.000000) scale(0.100000,-0.100000)"
fill="#000000" stroke="none">
<path d="M1122 4509 c-23 -4 -46 -11 -51 -14 -5 -3 -11 0 -13 6 -2 7 -17 0
-36 -16 -34 -29 -43 -24 -14 8 16 19 16 20 -4 9 -12 -6 -34 -25 -48 -43 -14
-17 -26 -28 -26 -24 0 11 23 50 34 57 6 4 8 10 4 13 -12 12 -138 -139 -138
-165 0 -6 -3 -9 -7 -8 -14 5 -118 -60 -143 -89 -19 -21 -20 -23 -4 -10 12 10
36 20 54 22 27 4 30 2 20 -10 -9 -11 -16 -12 -26 -4 -10 8 -19 1 -41 -30 -15
-22 -33 -40 -39 -41 -6 0 -17 -21 -25 -47 -7 -27 -27 -79 -45 -116 -39 -81
-52 -146 -33 -158 11 -6 11 -13 0 -36 -27 -57 -61 -167 -61 -196 0 -33 39
-109 52 -101 4 3 8 -2 8 -11 0 -9 -4 -14 -9 -11 -8 5 -18 -35 -21 -84 0 -8 -3
-45 -6 -82 -4 -49 -2 -68 7 -68 9 0 9 -3 -1 -15 -6 -8 -13 -42 -15 -75 -3 -49
-8 -64 -27 -79 l-23 -19 22 -24 c12 -12 26 -35 32 -50 9 -24 7 -29 -12 -39
-15 -9 -18 -14 -8 -17 32 -11 48 -41 54 -101 4 -34 18 -95 32 -135 16 -45 25
-95 25 -132 0 -74 24 -226 43 -279 35 -96 129 -233 173 -251 19 -8 34 -20 34
-28 0 -8 6 -25 13 -39 10 -19 17 -23 24 -16 8 8 18 4 33 -11 20 -20 22 -30 18
-90 -7 -88 -29 -126 -98 -167 -111 -64 -170 -104 -247 -167 l-80 -65 -33 20
c-18 11 -34 18 -37 16 -2 -3 -13 -54 -24 -113 -16 -88 -20 -166 -24 -409 -2
-185 -10 -350 -19 -430 -21 -168 -21 -374 -2 -401 21 -28 137 -34 702 -39 264
-2 496 -6 515 -10 18 -3 45 -2 58 2 22 9 19 12 -45 53 -149 95 -308 226 -297
243 4 6 0 8 -10 4 -9 -3 -21 1 -29 11 -11 13 -11 14 1 7 11 -6 13 -3 9 13 -4
12 -2 22 3 22 17 0 9 18 -26 56 -34 37 -46 62 -23 48 8 -5 9 -2 4 11 -4 11 -2
22 6 27 10 6 10 8 1 8 -7 0 -13 5 -13 10 0 23 31 7 78 -39 63 -62 202 -155
202 -135 0 8 -7 14 -15 14 -9 0 -18 7 -21 15 -4 8 -12 15 -20 15 -8 0 -19 9
-26 20 -7 11 -17 20 -21 20 -11 0 -137 128 -137 140 0 5 -6 13 -14 17 -7 4
-16 19 -20 33 -5 20 3 14 41 -28 43 -47 75 -70 57 -41 -4 8 0 9 15 4 12 -3 21
-2 21 4 0 12 31 3 119 -33 36 -14 72 -26 81 -26 11 0 23 -16 34 -44 19 -50
111 -189 231 -350 l80 -107 85 6 c141 9 194 17 207 31 8 7 20 11 28 8 14 -6
19 5 16 33 -1 6 3 14 9 18 8 5 7 11 -1 21 -6 8 -9 17 -6 21 4 3 -3 19 -14 35
-12 16 -18 35 -15 43 3 8 1 15 -4 15 -6 0 -10 8 -10 18 0 18 -63 95 -76 92 -5
-1 -10 4 -13 11 -2 7 1 9 9 4 7 -4 5 3 -4 17 -9 13 -17 39 -19 58 -3 20 -12
39 -23 45 -23 13 -48 35 -38 35 3 0 2 6 -5 13 -8 10 -7 17 1 25 9 9 8 12 -5
12 -11 0 -17 8 -18 23 0 21 -1 21 -8 2 -5 -11 -7 -23 -4 -27 8 -14 -35 7 -61
29 -27 24 -49 32 -28 11 17 -17 15 -28 -4 -28 -8 0 -12 5 -9 10 3 6 3 10 -2
11 -51 4 -79 22 -66 42 3 5 9 3 14 -4 7 -12 9 -12 9 -1 0 8 -9 16 -20 19 -11
3 -19 10 -18 17 3 17 -13 59 -31 80 -9 10 -15 20 -13 22 1 2 2 5 1 7 -6 19 -6
36 1 32 14 -9 30 21 27 53 -1 18 -6 32 -10 32 -5 0 -5 5 -1 11 3 6 2 14 -4 18
-5 3 -12 22 -13 41 -3 30 -1 35 19 38 24 4 29 17 10 25 -18 7 21 11 134 11 60
1 98 -3 98 -9 0 -6 9 -16 20 -23 17 -10 23 -9 38 9 9 12 28 33 42 46 l25 25
-60 -7 c-79 -10 -193 -11 -226 -3 -46 11 -149 71 -158 92 -2 4 -12 16 -22 24
-11 9 -19 22 -19 29 0 7 -5 13 -11 13 -5 0 -8 4 -5 9 3 4 -1 17 -9 27 -23 30
-18 37 20 31 l36 -6 -31 29 c-16 15 -30 31 -30 36 0 4 8 0 18 -9 24 -22 42
-22 42 1 0 14 2 15 10 2 14 -22 23 -5 10 20 -11 20 -10 21 10 10 18 -9 21 -9
15 0 -5 9 -1 10 16 6 23 -7 23 -7 5 8 -11 9 -16 16 -11 16 4 0 0 9 -10 20 -17
19 -17 19 14 7 17 -6 31 -15 31 -20 0 -4 4 -6 9 -2 5 3 16 -2 24 -10 9 -8 28
-15 44 -15 15 0 40 -6 54 -14 34 -17 84 -19 69 -1 -7 9 -1 11 24 10 19 0 32 3
30 7 -3 4 -16 8 -29 8 -13 0 -26 4 -29 9 -3 4 -33 19 -66 31 -63 23 -68 28
-48 48 9 9 7 12 -10 12 -20 0 -21 3 -12 20 8 15 6 24 -10 40 -11 11 -20 30
-20 42 0 15 -3 19 -11 11 -5 -5 -21 -8 -35 -5 -17 3 -24 11 -24 28 0 23 1 24
28 11 36 -19 130 -45 167 -46 17 0 37 -2 45 -3 40 -4 120 3 120 11 0 5 -8 8
-17 7 -10 0 -17 5 -15 12 2 9 -4 11 -18 7 -11 -4 -20 -2 -20 4 0 6 8 11 18 12
28 2 -49 18 -96 20 -24 1 -38 5 -32 9 6 3 28 6 50 5 22 -1 40 2 40 7 0 4 7 8
15 8 8 0 15 5 15 12 0 6 3 9 6 5 3 -3 24 5 45 19 33 20 43 23 62 13 12 -6 0
10 -27 36 -33 32 -54 45 -67 42 -10 -3 -19 -1 -19 3 0 5 -9 12 -20 15 -24 8
-25 18 -5 39 8 8 15 19 15 25 0 6 5 11 11 11 8 0 8 4 1 13 -12 15 -9 54 5 68
8 8 8 20 2 37 -5 14 -6 28 -2 31 4 3 14 17 22 30 12 22 11 26 -5 38 -16 11
-16 13 -1 13 10 0 14 5 11 15 -4 8 -1 15 6 15 6 0 8 5 5 10 -4 6 0 22 9 35 9
13 18 48 21 77 3 29 7 72 10 96 3 27 0 42 -7 42 -11 0 -58 50 -58 61 0 14 -51
60 -60 54 -6 -3 -10 -1 -10 4 0 19 -17 12 -23 -9 -3 -13 2 -25 16 -35 12 -8
17 -15 12 -15 -18 1 -62 40 -45 40 8 0 0 9 -17 20 -18 11 -33 24 -33 29 0 29
-183 38 -300 15 -22 -5 -31 -4 -27 3 4 6 -3 14 -16 18 -22 8 -22 8 3 12 14 3
30 9 35 15 7 7 0 8 -22 3 -40 -8 -43 6 -5 22 62 25 241 21 277 -7 6 -5 31 -11
56 -15 38 -6 47 -4 53 10 3 10 2 23 -4 30 -5 6 -7 15 -3 19 4 4 -3 9 -15 13
-12 3 -22 11 -22 19 0 7 -9 18 -21 25 -19 10 -20 9 -14 -13 7 -23 7 -23 -9 -2
-12 17 -27 21 -75 23 -33 1 -62 -3 -66 -9 -3 -5 -11 -10 -16 -10 -6 0 -8 4 -4
9 7 12 -66 2 -80 -10 -14 -14 -25 -11 -19 5 9 22 -32 25 -68 5 -32 -19 -33
-19 -11 -1 39 34 -4 45 -46 13 -14 -10 -31 -16 -40 -13 -10 4 -12 1 -6 -9 7
-12 6 -12 -6 0 -11 10 -11 15 -1 18 6 3 12 12 12 22 0 9 4 21 9 26 15 16 20
73 8 79 -9 5 -9 8 1 12 6 3 10 10 7 15 -4 5 2 25 11 44 9 20 14 39 10 42 -3 3
-6 -1 -6 -9 0 -9 -7 -19 -16 -22 -8 -3 -13 -10 -9 -15 3 -5 1 -12 -4 -16 -6
-3 -8 6 -5 21 3 16 1 23 -6 19 -5 -3 -10 -1 -10 5 0 7 7 10 15 6 10 -3 15 1
15 11 0 9 12 30 28 46 16 18 22 31 16 34 -13 4 -7 43 7 43 5 0 9 5 9 10 0 6 9
20 19 32 11 11 17 26 14 34 -3 8 -1 14 5 14 6 0 12 -4 14 -9 2 -5 12 -3 23 6
20 15 20 15 -2 8 -30 -9 -29 1 5 31 15 14 21 23 14 19 -23 -12 -25 26 -3 55
27 37 27 48 0 24 -22 -19 -22 -19 -10 3 10 19 8 22 -12 26 -13 3 -6 5 18 6 22
1 49 6 60 11 18 8 17 9 -8 9 -16 1 -26 5 -22 11 8 13 -1 13 -25 0 -11 -6 -21
-6 -25 -1 -3 5 5 13 17 17 21 6 21 7 3 20 -10 8 -15 14 -9 14 5 0 -20 16 -55
35 -73 39 -108 68 -46 37 22 -10 45 -17 52 -15 6 2 29 -5 50 -16 21 -11 32
-20 24 -21 -11 0 -11 -3 -1 -15 14 -17 40 -20 40 -5 0 6 -5 10 -12 10 -6 0 -9
3 -5 6 3 3 13 2 22 -3 16 -9 16 -11 0 -26 -25 -26 0 -20 59 13 45 26 58 29 80
20 39 -14 41 -13 15 9 l-24 19 28 -5 c15 -3 27 -9 27 -15 0 -5 9 -4 20 2 15 8
26 7 43 -1 20 -11 21 -11 8 4 -16 20 -16 20 27 8 25 -8 32 -7 32 5 0 8 -6 15
-12 16 -7 0 -18 2 -24 2 -6 1 -32 20 -59 44 -26 23 -53 42 -59 42 -7 0 -7 3 1
8 10 6 9 18 -2 55 -17 56 -2 55 16 -1 16 -49 48 -94 61 -86 7 4 8 2 4 -4 -8
-14 86 -62 120 -62 12 0 24 -5 26 -12 3 -8 9 -8 24 0 13 8 15 11 4 12 -10 0
-6 8 13 26 15 14 31 23 35 20 4 -2 14 -1 21 3 9 6 -1 15 -33 31 -25 13 -43 27
-40 31 2 4 -4 10 -14 13 -15 5 -169 196 -158 196 2 0 41 -42 87 -92 78 -88
189 -180 189 -157 0 5 4 8 9 5 14 -9 0 42 -15 55 -8 6 -14 16 -14 22 0 6 11 0
25 -13 14 -13 25 -20 25 -16 0 4 12 -2 26 -13 43 -34 48 -24 13 24 -17 24 -36
42 -42 38 -6 -3 -7 -1 -3 5 8 14 -21 69 -63 119 -61 73 -124 158 -105 142 120
-100 159 -134 157 -140 -1 -4 8 -15 20 -25 l22 -19 -19 23 c-33 39 0 25 141
-60 49 -29 88 -46 95 -42 7 4 10 4 6 -1 -4 -4 4 -24 17 -44 14 -19 25 -46 25
-58 0 -26 12 -30 30 -8 7 8 21 15 32 15 17 0 16 -3 -8 -24 -28 -23 -28 -24 -6
-30 11 -4 40 -2 63 4 22 6 44 9 47 5 3 -3 -4 -8 -16 -12 -12 -3 -19 -9 -16
-14 3 -5 16 -2 30 7 15 10 24 12 24 5 0 -6 -5 -11 -11 -11 -6 0 -9 -7 -5 -15
3 -9 0 -15 -10 -15 -8 0 -12 -5 -9 -10 4 -7 13 -6 26 1 27 14 34 6 14 -15 -9
-9 -12 -16 -7 -16 5 0 17 10 26 23 l16 22 -3 -30 c-1 -21 2 -29 12 -27 8 2 11
-3 8 -13 -4 -10 -1 -15 11 -15 13 0 14 -2 3 -9 -8 -5 -10 -14 -6 -21 5 -9 4
-11 -3 -6 -19 12 -14 -12 6 -26 32 -24 102 -131 102 -155 0 -4 -10 3 -21 17
-11 14 -18 19 -14 11 4 -7 2 -16 -4 -20 -8 -5 -3 -16 15 -34 17 -17 22 -27 13
-27 -10 -1 -9 -4 4 -14 9 -7 17 -17 17 -21 0 -5 8 -18 17 -29 10 -12 4 -9 -13
7 -43 38 -51 21 -9 -20 23 -22 29 -33 18 -33 -12 0 -13 -3 -4 -13 6 -8 8 -17
4 -20 -3 -4 1 -9 10 -13 16 -6 76 25 105 53 16 16 26 17 16 2 -3 -6 -31 -27
-61 -46 -41 -26 -52 -37 -42 -44 12 -7 12 -9 0 -9 -10 0 -11 -3 -2 -14 7 -8
20 -68 29 -134 18 -123 26 -148 36 -115 9 27 1 95 -14 123 -13 24 -12 25 7 8
28 -25 29 -23 28 26 0 31 3 42 10 36 7 -6 17 1 29 20 9 17 21 30 27 30 9 0 6
39 -6 62 -4 7 0 5 8 -4 20 -25 28 -22 19 5 -5 12 -8 34 -7 50 1 16 -4 27 -12
27 -7 0 -10 -7 -7 -17 5 -16 4 -16 -10 1 -11 13 -12 24 -6 36 5 10 7 20 4 23
-3 2 4 20 15 38 15 24 21 28 21 16 0 -10 -7 -26 -16 -35 -12 -12 -13 -17 -4
-20 29 -10 42 66 15 88 -13 10 -15 9 -15 -8 0 -12 -5 -24 -12 -28 -8 -5 -9 0
-6 14 4 12 2 24 -3 27 -8 5 -16 33 -33 109 -4 15 -8 27 -10 25 -2 -2 4 -47 13
-99 9 -53 14 -107 11 -120 -5 -18 -8 -7 -13 36 -4 34 -12 75 -19 90 -17 39
-96 156 -116 173 -15 12 -15 13 7 8 l23 -6 -23 25 c-12 13 -17 24 -10 24 7 0
-1 12 -16 26 l-28 26 35 -20 c19 -10 34 -24 32 -31 -1 -6 5 -11 14 -11 17 0
12 13 -19 48 -24 26 -12 30 15 5 18 -16 18 -16 12 2 -5 13 -4 16 4 11 7 -4 12
-5 12 -1 0 12 -46 22 -62 14 -11 -6 -19 -5 -24 3 -4 7 -4 10 0 6 4 -3 16 2 27
13 10 10 27 19 37 19 12 0 9 6 -13 21 -25 18 -27 20 -7 16 12 -3 20 -1 17 3
-3 5 0 12 5 15 7 5 5 12 -7 21 -10 7 -13 14 -6 14 6 0 19 -7 27 -16 9 -8 16
-12 16 -7 0 4 11 -5 25 -20 14 -15 29 -27 32 -27 15 0 -47 55 -94 83 -29 18
-53 38 -54 47 0 8 -7 -3 -15 -25 -8 -22 -12 -45 -10 -51 6 -14 -18 -37 -27
-27 -4 3 -7 2 -7 -4 0 -6 7 -13 15 -17 17 -6 20 -56 6 -84 -5 -9 -12 -25 -15
-34 -3 -10 -10 -18 -15 -18 -10 0 -4 21 21 76 6 12 8 30 5 40 -3 13 -5 9 -6
-11 -2 -38 -18 -15 -21 30 -3 31 17 93 21 65 1 -8 4 -1 8 15 4 17 4 32 0 35
-10 8 -39 115 -39 144 0 14 4 26 10 26 5 0 7 8 4 18 -5 14 -3 14 10 -2 17 -22
22 -71 6 -61 -13 8 -12 -9 4 -70 l13 -50 8 53 c8 62 -2 185 -15 177 -5 -3 -7
-12 -3 -21 4 -12 0 -14 -22 -8 -24 6 -27 5 -21 -11 5 -15 4 -16 -8 -6 -15 13
-30 56 -28 81 1 10 0 11 -4 2 -3 -6 -10 -10 -15 -6 -14 8 -11 -8 9 -41 29 -51
81 -240 68 -252 -3 -4 -6 1 -6 9 0 9 -7 29 -16 44 l-16 29 7 -29 c8 -37 14
-85 8 -66 -10 30 -23 34 -23 6 0 -24 -52 -116 -66 -116 -7 0 27 64 37 71 5 3
13 26 18 52 7 41 6 51 -12 73 -15 20 -22 23 -28 12 -7 -11 -11 -10 -18 2 -7 9
-6 17 0 21 6 3 -2 14 -17 24 -27 17 -27 17 -21 -6 l6 -24 -19 25 c-10 13 -16
28 -13 32 2 5 1 7 -4 6 -4 -1 -18 3 -29 10 -12 6 -24 8 -28 5 -13 -13 -5 -52
12 -65 18 -13 58 -68 50 -68 -3 0 -24 18 -47 40 -23 22 -69 54 -102 70 -68 35
-76 45 -19 25 48 -17 45 -6 -6 24 -19 12 -33 17 -29 11 5 -9 -22 4 -55 25 -8
5 -24 11 -35 13 -11 1 -26 9 -34 17 -13 13 -11 14 19 10 18 -2 46 -9 61 -15
15 -7 34 -10 41 -7 7 3 3 6 -9 6 -12 1 -25 6 -29 12 -4 8 1 9 17 5 13 -4 -6 9
-43 29 -38 19 -68 37 -68 40 0 9 103 -36 144 -64 54 -37 66 -43 66 -37 0 3
-27 24 -60 46 -33 22 -60 43 -60 46 0 3 15 3 33 0 31 -6 31 -5 -8 13 -22 11
-48 20 -57 20 -10 1 -18 6 -18 11 0 6 -6 10 -14 10 -8 0 -28 14 -45 31 -17 17
-35 28 -41 24 -5 -3 -23 1 -40 10 -16 8 -30 13 -30 10 0 -3 -10 3 -22 15 -12
11 -25 20 -30 20 -4 0 -8 4 -8 9 0 5 25 -4 56 -20 31 -16 61 -26 65 -23 5 3
23 -5 41 -17 17 -13 42 -24 55 -25 12 -2 32 -6 43 -9 18 -6 17 -3 -5 19 -30
30 -37 32 -28 9 4 -11 3 -14 -6 -9 -7 4 -10 13 -8 19 3 7 -5 22 -17 35 -19 21
-19 22 -2 16 13 -5 17 -4 13 3 -4 6 0 16 8 23 12 10 13 16 3 28 -11 13 -10 14
9 4 12 -7 27 -20 32 -30 9 -14 12 -15 20 -3 7 12 15 10 43 -7 45 -28 121 -109
108 -117 -13 -8 0 -37 15 -31 7 2 18 -1 25 -7 32 -30 -28 62 -69 107 l-46 50
44 -35 c65 -50 101 -90 107 -122 4 -15 11 -30 17 -34 5 -3 7 -1 3 5 -3 6 -2
13 3 16 22 14 -43 95 -118 148 -13 9 -20 21 -17 27 4 6 -15 21 -44 36 -53 27
-67 41 -24 25 17 -7 23 -7 19 1 -7 10 -56 32 -63 29 -7 -3 -61 53 -58 59 2 3
-9 6 -24 6 -22 0 -26 -3 -18 -12 7 -9 7 -13 -1 -13 -6 0 -10 -3 -10 -7 3 -21
-2 -32 -14 -27 -8 3 -38 -4 -68 -16 -54 -20 -54 -20 -30 0 13 11 29 20 37 20
8 0 14 4 14 9 0 5 12 11 28 13 26 3 26 3 -10 14 -29 9 -42 9 -70 -4 -18 -9
-35 -19 -38 -24 -5 -6 -25 -5 -50 2 -3 1 6 6 20 12 l25 11 -24 5 c-13 2 -27
-2 -32 -9 -4 -8 -11 -10 -15 -6 -4 4 -16 0 -26 -10 -19 -17 -26 -5 -6 15 8 8
5 14 -16 22 -38 14 -43 13 -60 -11 -8 -12 -19 -18 -25 -15 -5 4 -14 -2 -20
-11 -10 -17 -10 -17 -11 1 0 13 -5 17 -20 13 -10 -3 -24 1 -31 9 -14 17 -29
18 -29 1 0 -6 -15 -18 -32 -25 -62 -24 -118 -55 -118 -64 0 -5 12 -2 28 5 15
7 35 12 45 10 9 -3 17 0 17 6 0 6 10 10 23 8 12 -2 16 -2 8 0 -11 4 -12 6 -1
13 8 5 25 3 39 -4 14 -8 43 -16 63 -20 39 -7 55 -20 38 -31 -5 -3 -10 -1 -10
4 0 6 -5 11 -10 11 -7 0 -7 -6 0 -20 13 -24 12 -24 -29 -4 -85 42 -175 25
-252 -49 -30 -29 -48 -45 -41 -37 23 26 12 34 -15 10 -16 -13 -8 -4 17 21 25
24 55 49 65 56 17 9 12 10 -25 6 -34 -3 -41 -2 -30 6 8 6 22 11 31 11 24 0
121 67 106 73 -7 3 -31 -8 -52 -25 -22 -16 -41 -24 -43 -18 -2 5 -12 10 -22
10 -9 0 -23 7 -30 15 -16 19 -9 19 34 -2 34 -16 36 -16 53 5 10 12 32 28 48
37 l30 16 -40 -6 c-29 -5 -36 -4 -25 4 31 22 1 20 -60 -4 -34 -13 -67 -22 -72
-19 -6 4 -5 10 3 15 11 7 10 9 -4 9 -13 0 -17 -5 -12 -19 4 -15 -3 -21 -42
-31 -27 -7 -55 -17 -63 -23 -8 -5 0 4 18 22 30 29 60 43 47 21 -3 -6 1 -7 10
-3 12 4 13 8 5 13 -9 6 -9 9 1 12 8 3 11 9 7 13 -4 4 -14 3 -22 -4 -10 -8 -30
-9 -72 -2 -34 5 -68 5 -82 0 -31 -12 -34 -11 -27 4 4 6 0 4 -7 -5 -9 -11 -19
-14 -28 -8 -8 5 -23 2 -37 -7 -13 -9 -26 -13 -29 -10 -3 3 4 8 15 12 25 8 27
21 5 29 -18 7 -25 7 -82 -5z m1187 -53 c9 -11 6 -12 -14 -8 -14 2 -25 8 -25
13 0 14 26 11 39 -5z m-259 -20 c0 -2 -8 -10 -17 -17 -16 -13 -17 -12 -4 4 13
16 21 21 21 13z m-700 -35 c-30 -17 -60 -23 -60 -11 0 6 3 9 8 7 4 -3 16 -1
27 4 27 10 44 11 25 0z m-397 -12 c-6 -6 -9 -18 -6 -25 3 -8 1 -14 -5 -14 -5
0 -12 6 -15 14 -6 14 10 36 27 36 6 0 5 -5 -1 -11z m1321 -38 c-2 -3 -12 3
-22 13 -16 17 -16 18 5 5 12 -7 20 -15 17 -18z m-765 -1 c-20 -11 -55 -40 -78
-66 -22 -26 -41 -43 -41 -38 2 28 115 125 145 124 6 -1 -6 -10 -26 -20z m430
-12 c17 -18 28 -34 26 -36 -7 -8 -55 31 -55 45 0 8 -5 11 -12 7 -7 -4 -8 -3
-4 4 10 17 11 16 45 -20z m222 0 c8 -15 8 -18 0 -14 -6 4 -16 16 -22 28 -8 15
-8 18 0 14 6 -4 16 -16 22 -28z m-403 8 c-23 -17 -23 -22 3 -29 27 -7 15 -27
-15 -27 -13 0 -39 -7 -59 -15 -19 -8 -37 -11 -41 -8 -3 4 -22 -9 -41 -27 -41
-40 -47 -29 -7 13 23 25 24 29 7 24 -19 -7 -19 -6 -2 7 11 8 26 12 35 9 9 -4
13 -2 9 4 -5 7 1 10 15 7 13 -2 17 -2 10 2 -18 8 -5 24 21 24 12 1 33 7 47 15
31 18 40 19 18 1z m437 3 c11 -17 -1 -21 -15 -4 -8 9 -8 15 -2 15 6 0 14 -5
17 -11z m-1045 -49 c0 -5 -5 -10 -11 -10 -5 0 -7 5 -4 10 3 6 8 10 11 10 2 0
4 -4 4 -10z m95 -9 c-3 -6 -11 -11 -17 -11 -6 0 -6 6 2 15 14 17 26 13 15 -4z
m590 9 c13 -6 15 -9 5 -9 -8 0 -22 4 -30 9 -18 12 -2 12 25 0z m-1025 -20
c-19 -12 -30 -12 -30 -1 0 10 31 20 40 14 2 -2 -2 -8 -10 -13z m1154 -6 c23
-22 20 -24 -14 -11 -24 9 -35 9 -52 -2 -17 -11 -22 -11 -29 1 -6 10 1 15 29
19 20 3 40 7 44 8 4 0 14 -6 22 -15z m-816 -16 c-2 -7 -9 -19 -15 -26 -7 -7
-13 -20 -13 -28 0 -8 -4 -14 -10 -14 -14 0 -13 6 6 46 16 33 37 47 32 22z
m607 -8 c-27 -12 -43 -12 -25 0 8 5 22 9 30 9 10 0 8 -3 -5 -9z m80 -4 c-16
-8 -43 -17 -58 -20 -16 -4 -49 -26 -74 -49 -27 -24 -40 -33 -32 -19 18 29 77
70 126 88 50 17 76 17 38 0z m182 -2 c-3 -3 -12 -4 -19 -1 -8 3 -5 6 6 6 11 1
17 -2 13 -5z m9 -47 c4 -4 -11 -7 -34 -7 -48 0 -65 -16 -25 -23 16 -3 7 -4
-18 -4 -36 2 -45 -1 -41 -12 4 -10 0 -13 -15 -9 -27 7 -93 -62 -93 -97 0 -13
-4 -27 -10 -30 -16 -10 -11 37 9 80 22 48 61 88 101 105 17 7 30 16 30 20 0 8
85 -12 96 -23z m-1241 5 c-3 -3 -11 0 -18 7 -9 10 -8 11 6 5 10 -3 15 -9 12
-12z m186 -19 l34 -37 -32 25 c-26 20 -50 49 -40 49 2 0 19 -17 38 -37z m809
20 c-8 -3 -24 -10 -35 -15 -20 -9 -20 -9 -1 6 11 9 27 16 35 15 14 0 14 -1 1
-6z m40 0 c0 -5 -13 -17 -28 -27 l-27 -19 24 26 c26 28 31 32 31 20z m-1073
-9 c-3 -3 -12 -4 -19 -1 -8 3 -5 6 6 6 11 1 17 -2 13 -5z m1343 2 c0 -3 -4 -8
-10 -11 -5 -3 -10 -1 -10 4 0 6 5 11 10 11 6 0 10 -2 10 -4z m-1383 -12 c-3
-3 -12 -4 -19 -1 -8 3 -5 6 6 6 11 1 17 -2 13 -5z m188 -24 c-3 -5 -12 -10
-18 -10 -7 0 -6 4 3 10 19 12 23 12 15 0z m-150 -10 c-3 -5 -11 -10 -16 -10
-6 0 -7 5 -4 10 3 6 11 10 16 10 6 0 7 -4 4 -10z m1493 -68 c20 -28 39 -61 31
-52 -88 94 -111 122 -82 102 18 -13 41 -35 51 -50z m-1388 43 c-7 -8 -17 -15
-22 -15 -6 0 -5 7 2 15 7 8 17 15 22 15 6 0 5 -7 -2 -15z m230 -9 c0 -3 -4 -8
-10 -11 -5 -3 -10 -1 -10 4 0 6 5 11 10 11 6 0 10 -2 10 -4z m487 -18 c-3 -8
-6 -5 -6 6 -1 11 2 17 5 13 3 -3 4 -12 1 -19z m-814 0 c2 -7 -13 -31 -33 -54
-20 -22 -42 -49 -48 -60 -10 -16 -13 -17 -22 -4 -14 22 -12 50 5 56 21 9 19
25 -2 17 -10 -3 -6 3 9 15 15 13 33 19 42 16 10 -4 18 0 22 10 7 19 21 21 27
4z m67 -2 c0 -2 -8 -10 -17 -17 -16 -13 -17 -12 -4 4 13 16 21 21 21 13z
m1026 -18 c-3 -13 -6 -29 -6 -35 0 -7 -4 -13 -8 -13 -4 0 -6 16 -4 35 2 19 9
35 14 35 6 0 8 -10 4 -22z m-409 -13 c0 -8 -2 -13 -5 -10 -3 2 -14 0 -26 -6
-17 -8 -16 -6 4 10 14 11 25 21 26 21 0 0 1 -7 1 -15z m312 -57 c0 -40 5 -104
10 -143 13 -88 13 -95 1 -95 -5 0 -10 12 -10 28 -1 15 -7 44 -14 65 -8 20 -9
37 -4 37 5 0 6 19 2 45 -6 40 2 135 11 135 2 0 3 -33 4 -72z m-709 58 c0 -3
-15 -12 -32 -20 l-33 -16 24 20 c21 19 41 26 41 16z m77 -2 c-3 -3 -12 -4 -19
-1 -8 3 -5 6 6 6 11 1 17 -2 13 -5z m858 -71 c9 -14 11 -23 5 -23 -6 0 -8 -5
-4 -12 4 -7 3 -8 -5 -4 -6 4 -9 12 -5 17 3 6 -10 25 -30 44 -20 18 -36 36 -36
39 0 11 60 -37 75 -61z m-561 32 c-4 -8 -11 -15 -16 -15 -6 0 -5 6 2 15 7 8
14 15 16 15 2 0 1 -7 -2 -15z m936 -16 c0 -6 -4 -7 -10 -4 -5 3 -10 11 -10 16
0 6 5 7 10 4 6 -3 10 -11 10 -16z m-279 -25 c13 -16 12 -16 -7 -6 -11 6 -27
19 -35 28 -13 16 -12 16 7 6 11 -6 27 -19 35 -28z m-517 -11 c8 -19 2 -16 -25
13 -23 25 -23 26 -2 13 13 -7 25 -19 27 -26z m346 -25 c0 -14 -19 1 -31 25
-12 22 -12 22 10 3 11 -11 21 -23 21 -28z m486 7 c3 -14 11 -25 17 -25 6 0 8
-3 4 -6 -3 -3 5 -25 19 -48 17 -28 19 -34 5 -18 -10 12 -24 22 -30 22 -6 0
-11 1 -11 3 0 1 -7 23 -15 50 -8 26 -10 47 -5 47 5 0 12 -11 16 -25z m204 -27
c0 -6 -9 1 -20 15 -11 14 -20 29 -20 34 1 11 40 -37 40 -49z m-1243 -20 c1
-41 -1 -57 -8 -47 -10 16 -12 70 -3 93 3 9 7 16 8 16 0 0 2 -28 3 -62z m997
46 c3 -8 2 -12 -4 -9 -6 3 -10 10 -10 16 0 14 7 11 14 -7z m-1694 -4 c0 -5 -2
-10 -4 -10 -3 0 -8 5 -11 10 -3 6 -1 10 4 10 6 0 11 -4 11 -10z m287 4 c-3 -3
-12 -4 -19 -1 -8 3 -5 6 6 6 11 1 17 -2 13 -5z m443 -15 c-7 -11 -14 -18 -17
-15 -3 3 0 12 7 21 18 21 23 19 10 -6z m407 -1 c-3 -8 -6 -5 -6 6 -1 11 2 17
5 13 3 -3 4 -12 1 -19z m357 -38 c25 -33 46 -66 46 -73 0 -7 7 -23 16 -35 9
-13 13 -26 10 -29 -3 -3 -15 14 -25 38 -11 24 -38 70 -60 102 -53 75 -45 73
13 -3z m-474 26 c0 -6 5 -17 12 -24 15 -15 38 -82 28 -82 -9 0 -24 31 -22 42
1 4 -7 22 -18 40 -22 36 -26 53 -10 43 6 -3 10 -12 10 -19z m-651 11 c-2 -1
-15 -11 -29 -22 l-25 -20 19 23 c11 12 24 22 29 22 6 0 8 -1 6 -3z m141 0 c0
-1 -22 -26 -50 -55 -27 -29 -50 -50 -50 -47 0 6 91 105 96 105 2 0 4 -1 4 -3z
m924 -68 c18 -13 19 -13 6 11 -12 22 -11 24 2 13 8 -7 17 -11 20 -8 3 3 13 -5
24 -17 l19 -23 -21 18 c-33 27 -37 -1 -5 -30 14 -12 21 -23 16 -23 -6 0 -38
26 -71 58 -33 31 -49 48 -35 36 14 -11 35 -27 45 -35z m-92 -81 c23 -21 35
-38 29 -38 -14 0 -87 74 -132 133 -30 40 -29 40 16 -8 26 -27 65 -67 87 -87z
m-1067 71 c-46 -51 -82 -127 -94 -199 -6 -36 -9 -45 -10 -25 -3 82 52 199 119
252 27 22 23 14 -15 -28z m1732 -1 c-3 -8 -6 -5 -6 6 -1 11 2 17 5 13 3 -3 4
-12 1 -19z m43 -37 c7 -21 10 -45 7 -52 -4 -10 -6 -10 -6 2 -1 25 -27 70 -35
62 -4 -4 -4 0 0 10 10 27 20 20 34 -22z m-60 -9 c0 -7 -4 -10 -10 -7 -5 3 -10
-1 -10 -10 0 -9 -5 -13 -10 -10 -8 5 -8 11 0 20 6 7 10 17 9 21 -1 5 -1 14 0
19 2 13 21 -17 21 -33z m-1330 -7 c0 -14 -4 -25 -10 -25 -11 0 -14 33 -3 43
11 11 13 8 13 -18z m640 -27 c0 -14 -19 1 -31 25 -12 22 -12 22 10 3 11 -11
21 -23 21 -28z m715 -4 c-7 -48 -24 -94 -34 -94 -3 0 -17 -3 -30 -7 -17 -4
-22 -3 -17 6 4 6 11 9 16 6 17 -11 40 27 40 66 0 24 4 38 10 34 6 -3 10 3 10
14 0 12 3 21 6 21 4 0 3 -21 -1 -46z m-1312 -31 c-3 -7 -10 -13 -15 -13 -6 0
-7 7 -4 16 3 9 6 23 7 32 0 13 2 13 8 -3 5 -11 6 -26 4 -32z m837 -31 c0 -9
-32 23 -52 52 -17 25 -14 23 16 -8 20 -22 36 -42 36 -44z m-1619 15 c-8 -8
-11 -5 -11 9 0 27 14 41 18 19 2 -9 -1 -22 -7 -28z m53 -6 c-5 -6 -34 20 -34
30 0 5 8 1 18 -8 10 -10 17 -20 16 -22z m1153 -21 l6 -25 7 25 c7 22 8 21 9
-12 1 -20 -5 -39 -11 -42 -10 -5 -10 -7 0 -12 13 -6 17 -24 5 -24 -5 0 -14 4
-22 9 -12 8 -12 12 -2 25 9 11 10 20 1 36 -6 11 -15 18 -20 15 -5 -3 -12 0
-16 6 -4 7 -3 9 3 6 6 -4 14 7 18 26 6 25 9 27 12 12 2 -11 6 -31 10 -45z
m229 28 l29 -33 -32 29 c-18 17 -33 31 -33 33 0 8 8 1 36 -29z m-1046 8 c0 -2
-8 -10 -17 -17 -16 -13 -17 -12 -4 4 13 16 21 21 21 13z m720 -6 c0 -5 -2 -10
-4 -10 -3 0 -8 5 -11 10 -3 6 -1 10 4 10 6 0 11 -4 11 -10z m925 0 c3 -5 1
-10 -4 -10 -6 0 -11 5 -11 10 0 6 2 10 4 10 3 0 8 -4 11 -10z m-1237 -35 c-3
-3 -9 2 -12 12 -6 14 -5 15 5 6 7 -7 10 -15 7 -18z m349 3 c-3 -8 -6 -5 -6 6
-1 11 2 17 5 13 3 -3 4 -12 1 -19z m1025 -2 c3 -14 1 -31 -3 -38 -7 -10 -9
-10 -9 2 0 8 -3 25 -6 38 -4 12 -2 22 4 22 5 0 12 -11 14 -24z m-1763 11 c-2
-1 -15 -11 -29 -22 l-25 -20 19 23 c11 12 24 22 29 22 6 0 8 -1 6 -3z m165
-66 c26 -28 27 -32 8 -22 -23 12 -62 67 -62 86 0 6 6 1 12 -10 6 -11 25 -35
42 -54z m307 32 c13 -17 13 -17 -6 -3 -11 8 -22 16 -24 17 -2 2 0 3 6 3 6 0
17 -8 24 -17z m624 -3 c3 -5 2 -10 -4 -10 -5 0 -13 5 -16 10 -3 6 -2 10 4 10
5 0 13 -4 16 -10z m-1530 -21 c4 -11 4 -23 0 -27 -7 -7 -25 17 -25 36 0 20 18
14 25 -9z m429 -49 c-43 -56 -57 -67 -24 -17 12 17 29 44 38 59 9 15 19 23 20
18 2 -6 -13 -33 -34 -60z m-450 -39 c-8 -10 -24 14 -24 37 l1 27 13 -30 c7
-16 12 -32 10 -34z m540 33 c3 -8 2 -12 -4 -9 -6 3 -10 10 -10 16 0 14 7 11
14 -7z m493 -5 c15 -6 23 -13 17 -15 -6 -3 -26 2 -45 10 -39 18 -14 22 28 5z
m-259 -17 c12 12 25 18 29 14 5 -4 -2 -15 -13 -25 -21 -17 -21 -18 -3 -40 26
-32 24 -45 -3 -20 -13 11 -41 36 -63 56 l-40 35 36 -21 35 -20 22 21z m181 15
c-2 -1 -13 -9 -24 -17 -19 -14 -19 -14 -6 3 7 9 18 17 24 17 6 0 8 -1 6 -3z
m-429 -47 c12 -16 19 -30 16 -30 -2 0 -14 14 -26 30 -12 17 -19 30 -16 30 2 0
14 -13 26 -30z m107 -27 c-7 -6 -66 31 -71 44 -3 7 13 1 35 -14 21 -14 38 -28
36 -30z m121 -11 c12 -13 22 -25 22 -27 0 -6 -76 42 -115 73 l-30 22 50 -22
c28 -13 60 -33 73 -46z m1525 18 c-6 -7 -23 23 -23 40 0 8 6 4 13 -10 8 -14
12 -27 10 -30z m-1383 25 c0 -7 -39 -47 -65 -66 -10 -7 -4 5 15 29 30 37 50
52 50 37z m-157 -72 c24 -23 14 -28 -16 -8 -14 9 -34 16 -44 15 -10 -1 -29 -1
-43 0 -24 2 -24 3 5 10 37 10 75 3 98 -17z m289 5 c-16 -16 -16 -102 -1 -92 7
4 9 0 6 -12 -3 -11 -9 -36 -13 -57 -3 -20 -11 -40 -16 -43 -7 -4 -7 6 -3 27 7
31 6 32 -10 19 -14 -12 -16 -12 -14 1 1 7 -1 30 -5 50 -5 23 -4 45 3 58 8 13
8 21 2 21 -6 0 -18 -25 -26 -55 -9 -30 -19 -55 -22 -55 -7 0 3 48 18 85 7 17
13 33 13 37 1 3 5 10 10 15 5 5 6 3 2 -4 -12 -21 18 -15 37 8 10 11 21 18 25
15 3 -4 0 -12 -6 -18z m1296 -40 c12 -27 19 -48 17 -48 -9 0 -36 49 -45 81
-13 44 3 26 28 -33z m-1693 -16 c-4 -18 -3 -22 7 -16 10 6 11 5 1 -8 -7 -8
-11 -18 -8 -22 3 -3 0 -2 -6 3 -7 5 -13 20 -15 33 -2 13 -6 34 -10 48 l-7 25
22 -20 c16 -14 20 -26 16 -43z m235 54 c0 -3 -4 -8 -10 -11 -5 -3 -10 -1 -10
4 0 6 5 11 10 11 6 0 10 -2 10 -4z m1521 -26 c11 0 89 -157 89 -179 0 -9 -16
16 -36 54 -60 115 -65 124 -75 130 -5 4 -6 12 -2 18 5 8 9 7 11 -5 2 -10 8
-18 13 -18z m-1571 -29 c-6 -12 -15 -21 -21 -21 -6 0 -2 14 8 30 19 33 31 24
13 -9z m95 -28 c-8 -62 -25 -96 -25 -50 0 26 21 107 28 107 2 0 0 -26 -3 -57z
m157 15 c-7 -7 -12 -8 -12 -2 0 14 12 26 19 19 2 -3 -1 -11 -7 -17z m1298 -2
c0 -8 5 -16 12 -18 6 -2 12 -20 13 -39 1 -19 5 -42 10 -51 4 -11 3 -18 -3 -18
-6 0 -14 17 -18 38 -4 20 -10 42 -14 47 -12 17 -19 55 -9 55 5 0 9 -6 9 -14z
m-1620 -30 c0 -2 -8 -10 -17 -17 -16 -13 -17 -12 -4 4 13 16 21 21 21 13z
m1608 -51 c-3 -3 -9 2 -12 12 -6 14 -5 15 5 6 7 -7 10 -15 7 -18z m73 -7 c11
-21 11 -22 -4 -9 -10 7 -17 17 -17 22 0 15 9 10 21 -13z m-2151 -72 c0 -12 -5
-7 -19 24 -11 24 -11 24 3 6 9 -11 16 -24 16 -30z m720 4 c0 -5 -5 -10 -11
-10 -5 0 -7 5 -4 10 3 6 8 10 11 10 2 0 4 -4 4 -10z m-35 -70 c-3 -5 -11 -10
-16 -10 -6 0 -7 5 -4 10 3 6 11 10 16 10 6 0 7 -4 4 -10z m-928 -46 c-3 -3
-12 -4 -19 -1 -8 3 -5 6 6 6 11 1 17 -2 13 -5z m-64 -69 c4 -8 2 -17 -3 -20
-6 -4 -10 -4 -10 -1 0 2 -3 11 -6 20 -3 9 -2 16 4 16 5 0 12 -7 15 -15z m2477
-185 c0 -5 -2 -10 -4 -10 -3 0 -8 5 -11 10 -3 6 -1 10 4 10 6 0 11 -4 11 -10z
m-2300 -91 c0 -12 -5 -16 -14 -13 -10 4 -18 -5 -25 -28 -8 -30 -9 -26 -10 34
l-1 68 25 -22 c14 -12 25 -30 25 -39z m1010 34 c0 -10 -4 -14 -8 -8 -4 6 -11
13 -16 18 -5 4 -2 7 7 7 10 0 17 -8 17 -17z m164 -143 c65 -24 157 -138 156
-192 -1 -16 -10 -3 -31 40 -32 64 -71 102 -144 140 -41 21 -27 30 19 12z m-62
-20 c33 -10 88 -59 88 -80 0 -5 -8 -11 -17 -13 -10 -3 3 -5 28 -6 48 -1 65
-12 71 -46 2 -14 -2 -20 -14 -19 -10 1 -14 -4 -11 -12 6 -17 -9 -18 -25 -2 -6
6 -13 10 -16 7 -2 -2 10 -15 27 -29 17 -14 28 -19 24 -13 -6 9 -3 11 7 7 20
-8 29 -35 16 -48 -5 -5 -10 -18 -10 -29 0 -12 -4 -16 -12 -11 -10 5 -10 4 -2
-5 16 -17 6 -49 -18 -57 -11 -3 -17 -8 -14 -11 3 -3 0 -15 -7 -27 -16 -29 -16
-65 0 -59 7 3 13 -1 13 -9 0 -8 -19 -24 -42 -35 -24 -12 -82 -53 -130 -91 -91
-73 -171 -117 -195 -108 -8 3 -11 1 -8 -4 3 -6 -5 -10 -20 -10 -14 0 -28 7
-32 16 -4 10 -13 14 -28 10 -12 -3 -30 1 -41 8 -11 9 -30 12 -47 9 -21 -4 -26
-2 -22 8 4 10 -4 14 -27 14 -18 0 -38 -3 -44 -7 -7 -5 -14 -1 -18 8 -4 10 -13
13 -25 9 -28 -9 -34 9 -12 36 14 17 17 29 10 46 -5 13 -4 25 1 28 17 10 11 28
-6 21 -12 -5 -15 -2 -10 10 5 14 4 15 -9 4 -9 -7 -13 -15 -10 -18 3 -3 0 -11
-7 -19 -6 -7 -8 -16 -5 -20 4 -3 -1 -12 -11 -19 -15 -12 -14 -13 11 -8 21 3
27 1 21 -8 -21 -38 -60 -66 -48 -35 2 7 -5 22 -16 34 -11 12 -20 31 -20 43 0
11 -4 20 -8 20 -5 0 -7 13 -4 28 2 16 -1 45 -6 65 -9 32 -8 38 9 47 13 8 19 7
19 0 0 -13 33 18 48 45 10 18 11 18 12 2 0 -10 5 -15 11 -12 6 4 8 13 5 21 -3
8 0 11 10 7 7 -3 14 0 14 6 0 6 5 11 11 11 5 0 7 -5 3 -11 -4 -7 1 -7 16 1 18
10 20 14 9 21 -8 5 -11 9 -6 9 18 0 23 2 40 17 9 9 17 11 17 5 0 -6 -6 -13
-12 -15 -10 -4 -10 -6 -1 -6 7 -1 29 17 49 39 21 22 45 40 56 40 10 0 18 4 18
10 0 11 44 6 85 -10 40 -16 146 -29 180 -22 26 5 24 6 -26 22 -30 10 -45 18
-35 19 18 1 18 2 1 21 -10 11 -20 18 -24 16 -3 -2 -15 3 -26 11 -16 12 -16 14
-3 10 11 -4 22 1 28 11 10 15 11 15 6 0 -3 -9 2 -19 11 -22 21 -9 31 3 13 14
-18 11 -6 16 59 23 56 7 72 22 44 42 -24 17 -36 52 -19 59 17 7 18 7 58 -4z
m-117 -38 c-8 -8 -25 10 -19 20 4 6 9 5 15 -3 4 -7 6 -15 4 -17z m-267 -145
c-18 -18 -48 -28 -48 -16 0 5 10 14 23 19 32 13 40 12 25 -3z m-43 -47 c-3 -5
-10 -10 -16 -10 -5 0 -9 5 -9 10 0 6 7 10 16 10 8 0 12 -4 9 -10z m-558 -42
c-3 -8 -6 -5 -6 6 -1 11 2 17 5 13 3 -3 4 -12 1 -19z m1273 -108 c0 -11 -4
-20 -10 -20 -5 0 -10 9 -10 20 0 11 5 20 10 20 6 0 10 -9 10 -20z m-11 -59 c9
-6 10 -11 3 -15 -6 -4 -9 -13 -5 -21 3 -8 1 -15 -5 -15 -11 0 -22 23 -22 46 0
16 9 18 29 5z m-79 -181 c0 -5 -7 -10 -16 -10 -8 0 -12 5 -9 10 3 6 10 10 16
10 5 0 9 -4 9 -10z m-3 -44 c25 -26 20 -41 -7 -26 -17 9 -35 50 -22 50 4 0 17
-11 29 -24z m23 14 c0 -5 -2 -10 -4 -10 -3 0 -8 5 -11 10 -3 6 -1 10 4 10 6 0
11 -4 11 -10z m-592 -55 c-3 -3 -9 2 -12 12 -6 14 -5 15 5 6 7 -7 10 -15 7
-18z m62 -89 c0 -7 7 -27 15 -42 8 -16 15 -42 15 -57 0 -16 4 -26 9 -23 5 4
12 -8 16 -25 5 -22 3 -34 -6 -40 -11 -7 -11 -9 -1 -9 7 0 15 6 18 13 8 22 31
16 29 -7 -1 -12 -3 -21 -5 -21 -8 0 -4 -47 5 -55 8 -6 10 1 7 25 -3 22 0 35 7
35 11 0 13 -5 15 -32 1 -7 5 -16 10 -19 4 -4 9 -21 10 -40 1 -18 7 -34 14 -37
6 -2 12 -8 12 -13 0 -6 -4 -7 -10 -4 -5 3 -10 0 -10 -7 0 -8 -4 -6 -11 4 -5
10 -19 23 -31 29 -20 11 -21 9 -15 -25 10 -64 -25 -31 -38 36 -2 9 -8 26 -14
37 -6 11 -11 40 -11 64 0 51 -35 103 -59 88 -11 -7 -9 -18 12 -62 59 -127 72
-162 60 -166 -9 -3 -9 -12 -2 -29 15 -40 10 -51 -10 -24 -11 13 -17 28 -14 32
2 5 -1 7 -8 6 -7 -2 -29 30 -50 70 -35 70 -52 134 -52 195 0 15 -4 27 -8 27
-5 0 -9 7 -9 15 0 7 -8 19 -17 24 -10 6 -13 11 -6 11 6 0 15 -5 19 -12 5 -8
10 -6 14 8 4 10 11 19 16 19 5 0 15 4 22 9 7 4 19 5 27 2 8 -3 15 -1 15 4 0 6
5 10 10 10 6 0 10 -6 10 -14z m-100 0 c0 -11 -19 -15 -25 -6 -3 5 1 10 9 10 9
0 16 -2 16 -4z m-510 -285 c-1 -13 -3 -13 -15 3 -19 26 -19 42 0 26 8 -7 15
-20 15 -29z m780 -112 c0 -6 -4 -7 -10 -4 -5 3 -10 11 -10 16 0 6 5 7 10 4 6
-3 10 -11 10 -16z m46 -27 c-6 -5 -36 23 -36 34 0 4 9 -1 20 -11 11 -10 18
-20 16 -23z m-263 -140 c33 -36 69 -114 58 -125 -13 -13 -38 15 -47 53 -8 34
-11 41 -30 68 -20 26 -4 30 19 4z m87 -91 c-1 -13 -4 -12 -15 3 -8 11 -15 27
-15 35 1 13 4 12 15 -3 8 -11 15 -27 15 -35z m88 -80 c8 -4 16 -25 19 -44 l5
-37 -32 11 c-31 11 -56 51 -44 70 7 11 35 11 52 0z m-394 -386 c3 -8 1 -15 -4
-15 -6 0 -10 7 -10 15 0 8 2 15 4 15 2 0 6 -7 10 -15z m676 -79 c0 -3 -4 -8
-10 -11 -5 -3 -10 -1 -10 4 0 6 5 11 10 11 6 0 10 -2 10 -4z m35 -28 c5 4 5 1
0 -7 -4 -8 -2 -17 6 -22 8 -5 9 -9 3 -9 -7 0 -20 12 -30 28 -13 19 -13 24 -2
15 8 -7 19 -9 23 -5z m65 -18 c0 -5 -7 -7 -15 -4 -8 4 -15 1 -15 -7 0 -7 -3
-10 -6 -6 -9 9 5 27 22 27 8 0 14 -4 14 -10z m96 -91 c0 -13 -3 -15 -13 -7 -7
6 -13 14 -13 18 0 3 6 7 13 7 7 0 13 -8 13 -18z m9 -47 c-3 -3 -11 0 -18 7 -9
10 -8 11 6 5 10 -3 15 -9 12 -12z m148 -303 c-8 -8 -13 -8 -17 0 -4 6 -1 11 6
11 8 0 6 5 -4 11 -10 5 -18 15 -18 22 0 6 10 1 22 -11 16 -16 19 -25 11 -33z"/>
<path d="M1665 2530 c-3 -5 -1 -10 4 -10 6 0 11 5 11 10 0 6 -2 10 -4 10 -3 0
-8 -4 -11 -10z"/>
<path d="M1495 2435 c33 -13 67 -24 75 -24 8 0 -3 7 -25 15 -22 8 -44 19 -49
24 -6 6 -21 10 -35 9 -19 0 -10 -7 34 -24z"/>
<path d="M1345 2381 c-6 -11 9 -23 19 -14 9 9 7 23 -3 23 -6 0 -12 -4 -16 -9z"/>
<path d="M1175 2270 c-3 -6 1 -7 9 -4 18 7 21 14 7 14 -6 0 -13 -4 -16 -10z"/>
<path d="M1100 2266 c0 -2 7 -7 16 -10 8 -3 12 -2 9 4 -6 10 -25 14 -25 6z"/>
<path d="M1248 2238 c3 -12 1 -19 -4 -15 -5 3 -10 -3 -10 -14 0 -28 12 -23 29
10 13 26 13 30 0 35 -21 9 -22 8 -15 -16z"/>
<path d="M1195 2210 c-3 -5 -1 -10 4 -10 6 0 11 5 11 10 0 6 -2 10 -4 10 -3 0
-8 -4 -11 -10z"/>
<path d="M1226 2043 c-6 -14 -5 -15 5 -6 7 7 10 15 7 18 -3 3 -9 -2 -12 -12z"/>
<path d="M1751 4511 c-7 -5 -13 -12 -14 -17 -1 -5 -5 -8 -9 -6 -5 1 -8 -5 -8
-13 0 -8 3 -15 8 -15 11 1 47 30 36 30 -5 0 -3 4 5 9 7 5 9 11 4 14 -5 3 -15
2 -22 -2z"/>
<path d="M1796 4511 c15 -16 107 -43 98 -30 -4 6 -1 15 6 19 7 4 0 7 -17 7
-15 -1 -44 2 -63 7 -26 6 -32 5 -24 -3z"/>
<path d="M2010 4505 c-10 -12 -10 -15 3 -15 19 0 31 16 18 24 -5 3 -14 -1 -21
-9z"/>
<path d="M2200 4506 c0 -2 7 -6 15 -10 8 -3 15 -1 15 4 0 6 -7 10 -15 10 -8 0
-15 -2 -15 -4z"/>
<path d="M2350 4500 c0 -5 5 -10 11 -10 5 0 7 5 4 10 -3 6 -8 10 -11 10 -2 0
-4 -4 -4 -10z"/>
<path d="M2439 4493 c12 -23 29 -38 37 -31 2 3 -8 15 -22 29 -25 23 -26 23
-15 2z"/>
<path d="M2320 4486 c0 -2 7 -7 16 -10 8 -3 12 -2 9 4 -6 10 -25 14 -25 6z"/>
<path d="M2507 4459 c7 -7 15 -10 18 -7 3 3 -2 9 -12 12 -14 6 -15 5 -6 -5z"/>
<path d="M2415 4440 c3 -5 8 -10 11 -10 2 0 4 5 4 10 0 6 -5 10 -11 10 -5 0
-7 -4 -4 -10z"/>
<path d="M1815 4390 c27 -12 43 -12 25 0 -8 5 -22 9 -30 9 -10 0 -8 -3 5 -9z"/>
<path d="M2455 4380 c28 -12 37 -12 30 0 -3 6 -16 10 -28 9 -21 0 -21 -1 -2
-9z"/>
<path d="M2571 4367 c2 -1 13 -9 24 -17 19 -14 19 -14 6 3 -7 9 -18 17 -24 17
-6 0 -8 -1 -6 -3z"/>
<path d="M2310 4342 c0 -5 9 -17 20 -27 11 -10 20 -23 20 -28 0 -6 -10 -2 -22
9 l-21 19 18 -28 c12 -19 20 -24 25 -16 5 8 10 4 15 -12 5 -13 7 -26 6 -28 -3
-4 21 -21 31 -21 8 0 -6 27 -44 87 -28 42 -48 61 -48 45z"/>
<path d="M2655 4306 c22 -20 33 -36 26 -36 -8 0 -12 -3 -8 -6 3 -3 11 -3 17 1
13 8 -22 50 -55 67 -11 5 -2 -7 20 -26z"/>
<path d="M2370 4315 c7 -8 17 -15 22 -15 6 0 5 7 -2 15 -7 8 -17 15 -22 15 -6
0 -5 -7 2 -15z"/>
<path d="M2500 4321 c0 -6 14 -17 30 -26 17 -9 30 -14 30 -12 0 2 -13 13 -30
25 -16 13 -30 18 -30 13z"/>
<path d="M2780 4326 c0 -2 8 -10 18 -17 15 -13 16 -12 3 4 -13 16 -21 21 -21
13z"/>
<path d="M2575 4270 c4 -6 11 -8 16 -5 14 9 11 15 -7 15 -8 0 -12 -5 -9 -10z"/>
<path d="M2620 4274 c0 -13 18 -39 24 -34 2 3 -2 14 -10 24 -8 11 -14 16 -14
10z"/>
<path d="M2741 4215 c17 -30 28 -59 25 -64 -4 -5 -2 -12 4 -16 21 -13 9 43
-20 88 -41 64 -47 59 -9 -8z"/>
<path d="M2827 4243 c-11 -11 -8 -31 6 -36 10 -4 13 2 9 19 -5 26 -6 27 -15
17z"/>
<path d="M2785 4216 c10 -14 19 -26 22 -26 7 0 -17 39 -28 46 -6 3 -3 -5 6
-20z"/>
<path d="M2420 4221 c0 -5 7 -12 16 -15 24 -9 27 -7 10 9 -17 17 -26 19 -26 6z"/>
<path d="M2647 4186 c21 -24 41 -40 44 -35 3 5 13 7 22 3 10 -3 17 -1 17 6 0
6 -10 10 -24 8 -17 -2 -34 7 -55 30 -46 47 -49 39 -4 -12z"/>
<path d="M2470 4211 c0 -6 4 -12 8 -15 5 -3 9 1 9 9 0 8 -4 15 -9 15 -4 0 -8
-4 -8 -9z"/>
<path d="M2557 4139 c4 -13 8 -18 11 -10 2 7 -1 18 -6 23 -8 8 -9 4 -5 -13z"/>
<path d="M2705 4130 c3 -5 11 -10 16 -10 6 0 7 5 4 10 -3 6 -11 10 -16 10 -6
0 -7 -4 -4 -10z"/>
<path d="M2791 4120 c0 -8 4 -22 9 -30 12 -18 12 -2 0 25 -6 13 -9 15 -9 5z"/>
<path d="M2580 4109 c0 -6 6 -9 14 -6 8 3 17 -1 20 -10 4 -9 9 -13 13 -10 8 9
-17 37 -33 37 -8 0 -14 -5 -14 -11z"/>
<path d="M2646 4107 c3 -10 9 -15 12 -12 3 3 0 11 -7 18 -10 9 -11 8 -5 -6z"/>
<path d="M2440 4106 c0 -2 7 -7 16 -10 8 -3 12 -2 9 4 -6 10 -25 14 -25 6z"/>
<path d="M2680 4080 c0 -9 5 -21 10 -26 6 -6 13 -21 15 -34 2 -13 10 -28 16
-34 8 -8 9 -4 4 14 -12 39 -44 97 -45 80z"/>
<path d="M2596 4059 c34 -37 62 -101 32 -71 -18 18 -33 15 -18 -3 7 -9 19 -14
26 -11 17 7 58 -50 48 -66 -4 -7 -3 -10 1 -5 5 4 17 0 27 -10 24 -22 23 -12
-7 48 -14 27 -30 47 -34 44 -5 -3 -8 6 -7 19 2 18 -1 22 -15 19 -10 -3 -19 2
-23 14 -3 10 -16 24 -28 32 l-23 14 21 -24z"/>
<path d="M2656 4056 c3 -8 12 -17 20 -20 11 -4 12 -2 1 14 -14 23 -29 27 -21
6z"/>
<path d="M2510 4051 c0 -9 55 -41 72 -41 17 0 7 26 -14 39 -23 14 -23 14 -4
-8 24 -27 13 -27 -25 0 -16 11 -29 16 -29 10z"/>
<path d="M2476 3996 c26 -25 49 -46 51 -46 14 0 -44 63 -69 76 -25 13 -22 8
18 -30z"/>
<path d="M2512 4004 c10 -10 20 -15 24 -12 3 4 -5 12 -18 18 -22 12 -22 12 -6
-6z"/>
<path d="M2130 3962 c0 -10 144 -152 155 -152 3 0 13 7 22 15 12 12 18 13 29
4 8 -7 17 -9 21 -6 3 4 -5 15 -18 26 -24 21 -44 28 -35 13 2 -4 1 -14 -4 -21
-9 -16 -32 0 -117 81 -29 27 -53 46 -53 40z"/>
<path d="M2727 3933 c22 -48 22 -48 29 -40 6 6 -33 77 -42 77 -2 0 4 -17 13
-37z"/>
<path d="M2873 3926 c12 -13 33 -27 47 -31 14 -4 31 -12 38 -18 7 -5 14 -8 17
-6 2 3 -13 20 -33 39 -20 19 -31 27 -23 18 18 -24 0 -23 -32 2 -34 27 -41 25
-14 -4z"/>
<path d="M2840 3918 c0 -6 14 -23 32 -38 27 -23 29 -27 14 -33 -10 -4 -15 -3
-11 3 3 6 -1 13 -10 16 -25 10 -24 1 3 -26 13 -14 21 -18 18 -10 -4 8 0 6 8
-4 9 -11 16 -16 16 -11 0 4 9 0 20 -10 11 -10 20 -13 20 -8 0 6 -7 16 -15 23
-11 9 -12 16 -4 26 8 10 4 17 -18 31 -15 10 -34 26 -41 35 -15 21 -32 24 -32
6z"/>
<path d="M2930 3835 c0 -2 14 -14 31 -26 30 -21 30 -21 18 -1 -11 17 -49 38
-49 27z"/>
<path d="M2271 3770 c44 -63 70 -90 49 -50 -18 33 -8 33 28 -1 33 -31 45 -20
15 14 -11 12 -12 17 -4 12 9 -5 12 -4 7 3 -3 6 -19 10 -34 8 -28 -3 -62 18
-62 38 0 6 -10 17 -21 24 -15 10 -8 -5 22 -48z"/>
<path d="M2369 3789 c19 -15 26 -17 32 -7 8 13 -11 26 -41 27 -10 0 -7 -6 9
-20z"/>
<path d="M2280 3791 c0 -5 7 -14 15 -21 10 -8 15 -9 15 -2 0 6 7 9 15 6 8 -4
15 -2 15 4 0 5 -10 12 -22 16 -31 8 -38 7 -38 -3z"/>
<path d="M3060 3780 c6 -11 13 -20 16 -20 2 0 0 9 -6 20 -6 11 -13 20 -16 20
-2 0 0 -9 6 -20z"/>
<path d="M2423 3783 c-7 -3 -13 -11 -13 -18 0 -7 -3 -15 -7 -18 -5 -2 -2 -2 6
0 7 2 20 -5 27 -14 8 -10 13 -13 12 -6 -2 6 1 13 6 15 5 1 10 -5 12 -14 1 -10
-2 -18 -8 -18 -6 0 -5 -6 2 -15 19 -23 30 -18 30 13 0 31 -46 83 -67 75z m27
-23 c0 -5 -5 -10 -11 -10 -5 0 -7 5 -4 10 3 6 8 10 11 10 2 0 4 -4 4 -10z"/>
<path d="M3082 3700 c0 -14 2 -19 5 -12 2 6 2 18 0 25 -3 6 -5 1 -5 -13z"/>
<path d="M3009 3661 c12 -16 21 -34 21 -39 0 -6 4 -13 9 -16 19 -12 -3 63 -23
76 -23 16 -26 7 -7 -21z"/>
<path d="M2937 3669 c7 -7 15 -10 18 -7 3 3 -2 9 -12 12 -14 6 -15 5 -6 -5z"/>
<path d="M3067 3630 c-3 -12 -3 -19 0 -16 4 3 12 1 20 -5 17 -15 17 2 0 26
-13 17 -14 17 -20 -5z"/>
<path d="M2942 3624 c-10 -11 -9 -19 9 -44 19 -25 39 -32 39 -13 0 4 -3 3 -7
0 -3 -4 -12 5 -20 20 -10 19 -11 28 -2 33 6 4 7 10 3 13 -5 3 -15 -1 -22 -9z"/>
<path d="M2030 3600 c0 -5 5 -10 10 -10 6 0 10 5 10 10 0 6 -4 10 -10 10 -5 0
-10 -4 -10 -10z"/>
<path d="M3037 3560 c-3 -11 -1 -23 4 -26 5 -3 9 -10 9 -16 0 -6 -6 -6 -15 2
-9 7 -14 19 -11 27 3 7 1 13 -4 13 -16 0 -12 -19 11 -50 17 -22 20 -37 16 -62
-6 -30 -5 -31 8 -14 10 13 11 25 4 43 -13 34 -11 41 5 20 13 -17 14 -16 12 7
0 13 -4 22 -7 20 -9 -5 -20 26 -14 36 3 5 1 11 -4 14 -5 3 -11 -3 -14 -14z"/>
<path d="M2945 3540 c10 -11 20 -20 23 -20 3 0 -3 9 -13 20 -10 11 -20 20 -23
20 -3 0 3 -9 13 -20z"/>
<path d="M2920 3513 c0 -5 9 -18 20 -28 11 -10 20 -14 20 -8 0 5 -9 18 -20 28
-11 10 -20 14 -20 8z"/>
<path d="M1760 3500 c0 -5 7 -10 15 -10 29 0 14 -18 -50 -60 -36 -24 -71 -52
-77 -64 l-11 -21 24 21 c13 12 50 38 81 59 64 42 76 60 48 75 -24 13 -30 13
-30 0z"/>
<path d="M3053 3375 c0 -8 6 -15 13 -15 7 0 16 -10 20 -22 7 -22 7 -22 15 -3
4 11 8 29 8 40 0 19 0 19 -10 2 -10 -17 -12 -17 -28 -3 -15 14 -18 14 -18 1z"/>
<path d="M1527 3099 c7 -7 15 -10 18 -7 3 3 -2 9 -12 12 -14 6 -15 5 -6 -5z"/>
<path d="M1520 3042 c-8 -4 -16 -11 -17 -17 -1 -5 -5 -19 -9 -29 -5 -14 -4
-17 4 -12 7 4 12 12 12 18 0 6 7 20 17 30 17 19 16 20 -7 10z"/>
<path d="M2535 2755 c-5 -2 -27 -6 -48 -10 -38 -6 -108 -58 -106 -79 0 -7 2
-7 6 2 2 6 9 12 14 12 4 0 6 -7 3 -15 -4 -8 -1 -15 5 -15 6 0 11 5 11 11 0 5
5 7 10 4 6 -3 10 -11 10 -16 0 -6 -4 -7 -10 -4 -5 3 -10 -1 -10 -10 0 -9 -6
-15 -12 -13 -7 2 -13 -2 -13 -7 0 -6 3 -9 6 -8 4 1 38 5 75 9 76 7 134 27 134
45 0 8 -4 8 -16 -1 -13 -11 -19 -10 -36 7 -29 30 -17 57 22 51 16 -3 31 0 33
6 6 16 82 -27 81 -45 -1 -12 6 -15 27 -13 21 3 33 -2 41 -16 7 -11 20 -20 28
-20 12 1 11 3 -2 11 -23 13 -24 31 -2 22 13 -5 15 -3 6 13 -6 11 -20 28 -31
38 -30 27 -185 55 -226 41z m226 -62 c13 -16 12 -17 -3 -4 -10 7 -18 15 -18
17 0 8 8 3 21 -13z m-261 -14 c0 -5 -4 -9 -10 -9 -5 0 -10 7 -10 16 0 8 5 12
10 9 6 -3 10 -10 10 -16z"/>
<path d="M1935 2670 c28 -12 37 -12 30 0 -3 6 -16 10 -28 9 -21 0 -21 -1 -2
-9z"/>
<path d="M2430 2546 c14 -8 41 -16 60 -20 24 -4 18 0 -20 14 -64 23 -75 24
-40 6z"/>
<path d="M2120 2180 c0 -5 5 -10 10 -10 6 0 10 5 10 10 0 6 -4 10 -10 10 -5 0
-10 -4 -10 -10z"/>
<path d="M2480 2139 c0 -22 33 -68 107 -153 24 -26 43 -57 43 -67 0 -24 16
-24 29 0 19 34 1 67 -82 154 -46 48 -86 87 -90 87 -4 0 -7 -9 -7 -21z"/>
<path d="M2085 2130 c-3 -5 -1 -10 4 -10 6 0 11 5 11 10 0 6 -2 10 -4 10 -3 0
-8 -4 -11 -10z"/>
<path d="M2504 1859 c-22 -11 -60 -40 -85 -66 l-44 -46 40 26 c25 18 41 23 46
16 4 -8 9 -7 14 1 6 10 11 9 21 -4 13 -19 39 -13 28 6 -4 6 -1 13 5 17 13 8
33 71 23 71 -4 -1 -25 -10 -48 -21z"/>
<path d="M2120 1730 c0 -5 7 -10 15 -10 8 0 15 5 15 10 0 6 -7 10 -15 10 -8 0
-15 -4 -15 -10z"/>
<path d="M2120 1690 c0 -5 7 -7 15 -4 8 4 15 8 15 10 0 2 -7 4 -15 4 -8 0 -15
-4 -15 -10z"/>
<path d="M1886 1641 c-16 -18 -16 -19 11 -24 35 -7 39 -3 21 22 -15 21 -15 21
-32 2z"/>
<path d="M1885 1570 c-3 -5 1 -10 10 -10 9 0 13 5 10 10 -3 6 -8 10 -10 10 -2
0 -7 -4 -10 -10z"/>
<path d="M1815 1450 c3 -5 8 -10 11 -10 2 0 4 5 4 10 0 6 -5 10 -11 10 -5 0
-7 -4 -4 -10z"/>
<path d="M2669 1438 c-11 -21 3 -64 47 -150 29 -57 101 -200 160 -318 58 -118
110 -222 115 -230 5 -8 16 -31 25 -50 9 -19 24 -44 33 -55 10 -11 39 -58 65
-105 26 -47 51 -92 56 -100 10 -16 39 -75 97 -200 36 -77 67 -112 90 -103 21
8 15 48 -16 115 -41 87 -65 142 -66 148 -1 11 -118 236 -130 250 -14 16 -51
84 -147 270 -32 63 -66 122 -74 131 -8 8 -14 18 -14 21 0 3 -18 36 -40 72 -22
36 -40 68 -40 71 0 5 -127 184 -149 211 -6 7 -7 15 -4 18 4 3 3 6 0 6 -4 0 -8
-1 -8 -2z"/>
<path d="M3083 1307 c1 -14 6 -23 11 -20 4 3 5 -3 2 -14 -4 -11 3 -40 14 -66
12 -26 18 -52 15 -57 -3 -6 -2 -10 4 -10 6 0 8 -7 5 -15 -4 -8 -2 -15 3 -15 6
0 15 -17 22 -37 15 -46 57 -81 74 -64 9 9 7 10 -8 5 -18 -7 -18 -6 -6 9 9 11
10 17 2 17 -6 0 -11 9 -11 19 0 11 -9 23 -20 26 -21 7 -24 34 -5 47 5 4 2 15
-9 27 -10 11 -16 27 -13 36 4 8 2 15 -3 15 -5 0 -14 16 -21 35 -7 19 -17 35
-21 35 -5 0 -8 6 -6 13 2 6 -1 13 -6 14 -5 1 -12 7 -16 14 -5 7 -7 2 -7 -14z"/>
<path d="M1810 1309 c0 -5 -4 -7 -10 -4 -5 3 -10 1 -10 -4 0 -6 7 -11 15 -11
8 0 15 7 15 15 0 8 -2 15 -5 15 -3 0 -5 -5 -5 -11z"/>
<path d="M2455 1290 c-11 -17 17 -120 32 -120 14 0 13 6 -8 93 -10 39 -14 43
-24 27z"/>
<path d="M3384 1233 c12 -74 15 -90 27 -119 6 -16 13 -38 14 -49 2 -11 9 -33
16 -50 7 -16 11 -35 10 -41 0 -6 6 -17 14 -24 8 -7 15 -20 15 -30 0 -28 30
-91 40 -85 5 3 8 -4 7 -15 -1 -11 -6 -20 -11 -20 -6 0 -5 -5 1 -11 33 -33 39
38 7 86 -9 13 -13 29 -9 35 7 11 -28 135 -51 179 -8 14 -14 32 -14 39 0 7 -9
31 -19 55 -11 23 -22 52 -26 65 -11 38 -28 26 -21 -15z"/>
<path d="M3587 1148 c-3 -13 -9 -54 -12 -93 -5 -55 -3 -74 9 -90 14 -18 15
-11 16 93 0 112 -3 132 -13 90z"/>
<path d="M3029 1026 c-1 -3 -2 -12 -4 -18 -2 -14 46 -109 220 -433 105 -197
125 -230 125 -208 0 9 -62 153 -116 270 -25 52 -121 231 -144 268 -11 17 -24
41 -30 54 -12 27 -49 77 -51 67z"/>
<path d="M3235 970 c3 -5 8 -10 11 -10 2 0 4 5 4 10 0 6 -5 10 -11 10 -5 0 -7
-4 -4 -10z"/>
<path d="M1914 874 c6 -46 26 -92 42 -98 9 -3 12 -10 9 -16 -3 -5 1 -10 9 -10
20 0 20 0 0 60 -9 26 -27 58 -40 71 l-24 23 4 -30z"/>
<path d="M2916 837 c3 -10 9 -15 12 -12 3 3 0 11 -7 18 -10 9 -11 8 -5 -6z"/>
<path d="M3792 778 c-11 -29 -25 -69 -31 -89 -6 -20 -25 -57 -41 -83 -29 -45
-39 -99 -21 -110 8 -5 69 119 96 194 14 40 30 140 22 140 -3 0 -14 -24 -25
-52z"/>
<path d="M3524 755 c-5 -13 -3 -41 12 -130 2 -11 8 -38 13 -60 6 -23 8 -124 4
-245 -6 -215 0 -260 35 -260 9 0 28 7 41 17 l24 16 -6 186 c-4 154 -10 203
-30 281 -26 98 -45 151 -60 161 -5 3 -8 9 -8 13 5 36 -14 51 -25 21z"/>
<path d="M1960 725 c6 -8 9 -18 6 -24 -8 -13 4 -42 15 -36 4 3 6 12 2 20 -3 8
0 15 6 15 6 0 3 9 -6 20 -10 11 -21 20 -26 20 -5 0 -4 -7 3 -15z"/>
<path d="M1515 410 c3 -5 11 -10 16 -10 6 0 7 5 4 10 -3 6 -11 10 -16 10 -6 0
-7 -4 -4 -10z"/>
<path d="M1556 392 c-3 -6 -1 -14 5 -17 14 -9 20 -2 10 14 -6 8 -11 9 -15 3z"/>
<path d="M1595 360 c3 -5 8 -10 11 -10 2 0 4 5 4 10 0 6 -5 10 -11 10 -5 0 -7
-4 -4 -10z"/>
<path d="M3712 350 c0 -14 2 -19 5 -12 2 6 2 18 0 25 -3 6 -5 1 -5 -13z"/>
<path d="M3824 246 c-52 -61 -89 -81 -73 -39 5 13 9 26 9 28 0 5 -41 -3 -48
-10 -3 -3 -7 -41 -10 -86 l-5 -81 24 7 c13 5 29 8 36 8 6 0 24 10 39 22 21 17
27 30 26 58 -1 20 3 39 9 42 14 9 59 105 49 105 -5 0 -30 -24 -56 -54z"/>
</g>
</svg>
